<svg width="20" height="20" viewBox="0 0 20 20" fill="none" xmlns="http://www.w3.org/2000/svg">
<path d="M5.83398 10.5664C7.82188 10.5667 9.43342 12.1781 9.43359 14.166C9.43359 16.1541 7.82198 17.7663 5.83398 17.7666C3.84576 17.7666 2.2334 16.1543 2.2334 14.166C2.23358 12.1779 3.84587 10.5664 5.83398 10.5664ZM14.167 10.5664C16.1549 10.5667 17.7674 12.1781 17.7676 14.166C17.7676 16.1541 16.155 17.7663 14.167 17.7666C12.1789 17.7664 10.5674 16.1541 10.5674 14.166C10.5676 12.178 12.179 10.5666 14.167 10.5664ZM5.83398 11.9326C4.60066 11.9326 3.60076 12.9327 3.60059 14.166C3.60059 15.3994 4.60055 16.3994 5.83398 16.3994C7.06719 16.3991 8.06738 15.3993 8.06738 14.166C8.06721 12.9329 7.06709 11.9329 5.83398 11.9326ZM14.167 11.9326C12.9338 11.9328 11.9338 12.9328 11.9336 14.166C11.9336 15.3993 12.9337 16.3992 14.167 16.3994C15.4002 16.3991 16.4004 15.3993 16.4004 14.166C16.4002 12.9329 15.4001 11.9329 14.167 11.9326ZM13.8643 2.44043C13.9786 2.16471 14.3554 2.1645 14.4697 2.44043L14.707 3.0127C15.1264 4.02509 15.9098 4.83509 16.8955 5.27344L17.5674 5.57227C17.8332 5.69088 17.8332 6.08256 17.5674 6.20117L16.8555 6.51758C15.8946 6.94493 15.1249 7.72594 14.6982 8.70508L14.4678 9.23535C14.351 9.50343 13.9841 9.50331 13.8672 9.23535L13.6357 8.70508C13.209 7.72615 12.4402 6.94497 11.4795 6.51758L10.7676 6.20117C10.5012 6.08272 10.5012 5.69072 10.7676 5.57227L11.4395 5.27344C12.4249 4.83502 13.2077 4.02502 13.627 3.0127L13.8643 2.44043ZM5.83398 2.2334C7.82198 2.23366 9.43359 3.84495 9.43359 5.83301C9.43359 7.82107 7.82198 9.43235 5.83398 9.43262C3.84576 9.43262 2.2334 7.82123 2.2334 5.83301C2.2334 3.84478 3.84576 2.2334 5.83398 2.2334ZM5.83398 3.59961C4.60055 3.59961 3.60059 4.59957 3.60059 5.83301C3.60059 7.06644 4.60055 8.06641 5.83398 8.06641C7.06719 8.06614 8.06738 7.06628 8.06738 5.83301C8.06738 4.59974 7.06719 3.59987 5.83398 3.59961Z" fill="#2B2627"/>
<path d="M13.8638 2.43945C13.9781 2.16398 14.3546 2.16409 14.4692 2.43945L14.7065 3.01172C15.1258 4.0239 15.9087 4.834 16.894 5.27246L17.5669 5.57129C17.8331 5.68977 17.833 6.08166 17.5669 6.2002L16.855 6.5166C15.8943 6.94394 15.1244 7.72511 14.6978 8.7041L14.4663 9.23438C14.3495 9.50251 13.9835 9.50251 13.8667 9.23438L13.6353 8.7041C13.2084 7.72519 12.4388 6.94388 11.478 6.5166L10.7661 6.2002C10.5005 6.08141 10.5002 5.68978 10.7661 5.57129L11.439 5.27246C12.4245 4.83406 13.2072 4.02409 13.6265 3.01172L13.8638 2.43945Z" fill="#FCD41D"/>
</svg>
