<svg width="20" height="20" viewBox="0 0 20 20" fill="none" xmlns="http://www.w3.org/2000/svg">
<g clip-path="url(#clip0_2196_72)">
<path d="M10.001 0.983398C13.3236 0.983804 16.0658 3.47055 16.4668 6.68457L16.4834 6.81641H17.501C18.3383 6.81684 19.0176 7.49564 19.0176 8.33301V11.666C19.0176 12.5034 18.3383 13.1822 17.501 13.1826H16.4834L16.4668 13.3145C16.072 16.4803 13.4055 18.939 10.1504 19.0127V17.6455C12.925 17.566 15.1502 15.2938 15.1504 12.5V7.5C15.1504 4.656 12.8449 2.35005 10.001 2.34961C7.15671 2.34961 4.85059 4.65573 4.85059 7.5V13.1826H2.50098C1.66334 13.1826 0.983398 12.5037 0.983398 11.666V8.33301C0.983399 7.49538 1.66334 6.81641 2.50098 6.81641H3.51758L3.53418 6.68457C3.93518 3.4703 6.67802 0.983398 10.001 0.983398ZM13.3262 13.1035C12.3528 13.6824 11.2161 14.0165 10.001 14.0166C8.78563 14.0166 7.64838 13.6825 6.6748 13.1035L7.40039 11.9424C8.16394 12.3901 9.05223 12.6494 10.001 12.6494C10.9492 12.6493 11.8364 12.3898 12.5996 11.9424L13.3262 13.1035ZM2.35059 8.18262V11.8164H3.48438V8.18262H2.35059ZM16.5176 8.18262V11.8164H17.6504V8.18262H16.5176Z" fill="#2B2627"/>
<path d="M13.3262 13.1035C12.3528 13.6824 11.216 14.0164 10.001 14.0166C8.78551 14.0166 7.64747 13.6826 6.67383 13.1035L7.40039 11.9424C8.16393 12.3901 9.05226 12.6494 10.001 12.6494C10.9492 12.6493 11.8364 12.3898 12.5996 11.9424L13.3262 13.1035Z" fill="#FCD41D"/>
</g>
<defs>
<clipPath id="clip0_2196_72">
<rect width="20" height="20" fill="white"/>
</clipPath>
</defs>
</svg>
