<svg width="20" height="20" viewBox="0 0 20 20" fill="none" xmlns="http://www.w3.org/2000/svg">
<path d="M18.334 3.4834C18.7111 3.48366 19.0174 3.78894 19.0176 4.16602V15.833C19.0176 16.2103 18.7112 16.5163 18.334 16.5166H1.66699C1.28975 16.5164 0.983398 16.2103 0.983398 15.833V4.16602C0.983574 3.78888 1.28986 3.48357 1.66699 3.4834H18.334ZM2.35059 4.84961V15.1494H17.6504V4.84961H2.35059ZM6.66699 11.3994C8.14446 11.3997 9.3489 12.5585 9.42676 14.0166H3.9082C3.98608 12.5584 5.18946 11.3996 6.66699 11.3994ZM14.8506 10.1494V11.5166H10.9844V10.1494H14.8506ZM6.66699 6.39941C7.73452 6.39968 8.60059 7.26542 8.60059 8.33301C8.60059 9.40059 7.73452 10.2663 6.66699 10.2666C5.59939 10.2664 4.73438 9.40064 4.73438 8.33301C4.73438 7.26537 5.59939 6.39959 6.66699 6.39941ZM15.6836 6.81641V8.18262H10.9844V6.81641H15.6836Z" fill="#2B2627"/>
<path d="M6.66699 11.4004C8.14442 11.4006 9.34775 12.5586 9.42578 14.0166H3.90723C3.98525 12.5585 5.18941 11.4004 6.66699 11.4004Z" fill="#FCD41D"/>
</svg>
