<svg width="20" height="20" viewBox="0 0 20 20" fill="none" xmlns="http://www.w3.org/2000/svg">
<path d="M12.0576 17.7461C12.0885 17.7907 12.1185 17.8362 12.1465 17.8828C12.1185 17.8361 12.0885 17.7907 12.0576 17.7461ZM12.3252 2.2041C13.5609 2.57215 14.6738 3.2264 15.5869 4.08984C15.1345 4.8936 15.1056 5.90931 15.6006 6.7666C16.0958 7.6241 16.9905 8.10555 17.9131 8.11523C18.0565 8.71995 18.1338 9.35099 18.1338 10C18.1338 10.6484 18.0563 11.2786 17.9131 11.8828C16.9904 11.8925 16.0958 12.3759 15.6006 13.2334C15.1058 14.0905 15.1348 15.1056 15.5869 15.9092C14.6738 16.7727 13.561 17.4268 12.3252 17.7949C11.8556 17.0006 10.9903 16.467 10 16.4668C9.0097 16.4669 8.14348 16.9997 7.67383 17.7939C6.4385 17.4258 5.32591 16.7725 4.41309 15.9092C4.86516 15.1057 4.89493 14.0904 4.40039 13.2334C3.905 12.3754 3.00906 11.8921 2.08594 11.8828C1.94275 11.2787 1.8672 10.6483 1.86719 10C1.86719 9.351 1.94345 8.71993 2.08691 8.11523C3.00968 8.10562 3.90518 7.62432 4.40039 6.7666C4.89518 5.90935 4.86547 4.89352 4.41309 4.08984C5.32595 3.2266 6.43846 2.57222 7.67383 2.2041C8.14332 2.99902 9.00919 3.53309 10 3.5332C10.9905 3.53303 11.8556 2.99869 12.3252 2.2041ZM11.9541 17.6064C11.8835 17.5181 11.8063 17.4354 11.7246 17.3574C11.8064 17.4354 11.8835 17.5181 11.9541 17.6064ZM11.4805 17.1523C11.5151 17.1778 11.5488 17.2043 11.582 17.2314C11.5488 17.2043 11.5151 17.1778 11.4805 17.1523ZM15.8408 15.9434C15.406 16.3707 14.9241 16.7509 14.4043 17.0752C14.9241 16.7508 15.406 16.3706 15.8408 15.9434ZM11.3447 17.0586C11.3757 17.0784 11.4055 17.1 11.4355 17.1211C11.4055 17.1 11.3757 17.0784 11.3447 17.0586ZM11.2061 16.9766C11.2344 16.9922 11.2623 17.0087 11.29 17.0254C11.2623 17.0087 11.2344 16.9922 11.2061 16.9766ZM11.0566 16.9014C11.0868 16.9155 11.117 16.9291 11.1465 16.9443C11.117 16.9291 11.0868 16.9154 11.0566 16.9014ZM10.8838 16.8281C10.9243 16.8435 10.9644 16.8596 11.0039 16.877C10.9644 16.8596 10.9243 16.8435 10.8838 16.8281ZM10.748 16.7812C10.7825 16.7921 10.8168 16.8032 10.8506 16.8154C10.8168 16.8032 10.7825 16.7921 10.748 16.7812ZM10.5889 16.7373C10.6183 16.7444 10.6477 16.7516 10.6768 16.7598C10.6477 16.7516 10.6183 16.7444 10.5889 16.7373ZM10 16.666C9.87839 16.666 9.75857 16.6746 9.6416 16.6914C9.75848 16.6746 9.87847 16.666 10 16.666ZM10.1973 16.6738C10.3061 16.6824 10.4131 16.6977 10.5176 16.7197C10.4131 16.6977 10.3061 16.6823 10.1973 16.6738ZM10.1689 16.6719C10.1715 16.672 10.1742 16.6717 10.1768 16.6719C10.1184 16.6678 10.0594 16.666 10 16.666L10.1689 16.6719ZM12.6465 3.78906C11.935 4.426 11.0001 4.79968 10 4.7998C8.99999 4.79972 8.06595 4.42584 7.35449 3.78906L7.25684 3.70117L7.1377 3.75586C6.74735 3.93518 6.37431 4.15145 6.02441 4.40039L5.91797 4.47656L5.94434 4.60449C6.13973 5.53865 5.99668 6.53373 5.49707 7.39941C4.99725 8.26515 4.2065 8.88757 3.2998 9.18555L3.17578 9.22656L3.16309 9.35645C3.1434 9.56902 3.13379 9.78412 3.13379 10C3.13379 10.2158 3.14342 10.4301 3.16309 10.6426L3.17578 10.7734L3.2998 10.8145C4.20646 11.1124 4.99725 11.734 5.49707 12.5996C5.99687 13.4654 6.13978 14.4612 5.94434 15.3955L5.91797 15.5234L6.02441 15.5996C6.37428 15.8485 6.74738 16.0639 7.1377 16.2432L7.25684 16.2979L7.35449 16.2109C8.06596 15.5741 8.99996 15.2003 10 15.2002C11.0001 15.2003 11.935 15.574 12.6465 16.2109L12.7441 16.2979L12.8633 16.2432C13.2535 16.0639 13.6268 15.8485 13.9766 15.5996L14.083 15.5234L14.0557 15.3955C13.8602 14.4611 14.0039 13.4655 14.5039 12.5996C15.0037 11.7342 15.7937 11.1124 16.7002 10.8145L16.8252 10.7734L16.8369 10.6426C16.8565 10.4301 16.8672 10.2158 16.8672 10C16.8672 9.78412 16.8566 9.56897 16.8369 9.35645L16.8252 9.22656L16.7002 9.18555L16.5322 9.12598C15.6963 8.80908 14.9725 8.21114 14.5039 7.39941C14.0041 6.53366 13.8603 5.53877 14.0557 4.60449L14.083 4.47656L13.9766 4.40039C13.6267 4.15145 13.2535 3.9352 12.8633 3.75586L12.7441 3.70117L12.6465 3.78906ZM6.39844 15.6113C6.57381 15.7242 6.75427 15.8289 6.93945 15.9248L6.66504 15.7744C6.57488 15.7222 6.48607 15.6677 6.39844 15.6113ZM11.916 15.4668C12.1199 15.5725 12.3146 15.6945 12.498 15.832C12.3146 15.6946 12.1199 15.5724 11.916 15.4668ZM13.8057 14.0557C13.7469 14.5165 13.7655 14.9833 13.8604 15.4365C13.7815 15.4926 13.7003 15.5461 13.6191 15.5986C13.7002 15.5461 13.7806 15.4926 13.8594 15.4365C13.7646 14.9834 13.7469 14.5165 13.8057 14.0557ZM15.5176 15.2041C15.5402 15.2921 15.5676 15.3787 15.5996 15.4639C15.5676 15.3788 15.5402 15.2921 15.5176 15.2041ZM9.80371 15.0049C9.60847 15.014 9.41611 15.0368 9.22754 15.0723C9.4161 15.0368 9.60846 15.014 9.80371 15.0049ZM10.1963 15.0049C10.4206 15.0154 10.6412 15.0438 10.8564 15.0889C10.6996 15.056 10.5398 15.0322 10.3779 15.0176L10.1963 15.0049ZM14.0762 13.0195C14.0426 13.1024 14.0124 13.1863 13.9844 13.2705C14.0124 13.1863 14.0426 13.1024 14.0762 13.0195ZM16.209 12.7764C16.1255 12.8563 16.0475 12.9434 15.9746 13.0361C16.0475 12.9434 16.1255 12.8563 16.209 12.7764ZM9.74512 12.4873L10 12.5C9.90457 12.5 9.81042 12.4928 9.71777 12.4824C9.72679 12.4834 9.73608 12.4864 9.74512 12.4873ZM10 7.7002C11.2701 7.70046 12.3008 8.72995 12.3008 10C12.3007 11.2701 11.27 12.2995 10 12.2998C8.72991 12.2996 7.70029 11.2701 7.7002 10C7.7002 8.7299 8.72986 7.70037 10 7.7002ZM5.34277 12.0156H5.34375H5.34277ZM1.69727 10.7139C1.71678 10.9442 1.74534 11.1719 1.7832 11.3965C1.7453 11.1719 1.71681 10.9442 1.69727 10.7139ZM15.627 11.1152H15.6279C15.5756 11.15 15.5244 11.1864 15.4736 11.2236H15.4727C15.5234 11.1864 15.5747 11.1501 15.627 11.1152ZM4.15332 10.9805C4.21738 11.0176 4.28071 11.0561 4.34277 11.0967C4.28072 11.0561 4.21737 11.0177 4.15332 10.9805ZM10 8.9668C9.42944 8.96697 8.9668 9.4294 8.9668 10C8.96689 10.5705 9.4295 11.033 10 11.0332C10.5704 11.0329 11.0331 10.5705 11.0332 10C11.0332 9.42946 10.5705 8.96706 10 8.9668ZM9.87109 10.8223C9.86 10.8205 9.84883 10.8195 9.83789 10.8174C9.84883 10.8195 9.86 10.8205 9.87109 10.8223ZM10.1592 10.8174C10.1518 10.8188 10.1442 10.8191 10.1367 10.8203C10.1442 10.8191 10.1518 10.8188 10.1592 10.8174ZM9.70508 10.7783C9.6989 10.776 9.69263 10.774 9.68652 10.7715C9.69263 10.774 9.6989 10.776 9.70508 10.7783ZM10.3086 10.7725C10.3047 10.774 10.3008 10.7758 10.2969 10.7773C10.3008 10.7758 10.3047 10.774 10.3086 10.7725ZM9.57227 10.7139C9.56372 10.7087 9.55522 10.7037 9.54688 10.6982C9.55521 10.7037 9.56373 10.7087 9.57227 10.7139ZM10.4463 10.7012C10.4411 10.7045 10.4359 10.7077 10.4307 10.7109C10.4359 10.7077 10.4411 10.7045 10.4463 10.7012ZM16.667 10L16.6602 10.3135C16.6554 10.4174 16.6482 10.521 16.6387 10.624H16.6377C16.6472 10.5209 16.6544 10.4174 16.6592 10.3135L16.667 10ZM9.44531 10.6211C9.44135 10.6176 9.43748 10.614 9.43359 10.6104C9.43748 10.614 9.44136 10.6176 9.44531 10.6211ZM10.5615 10.6123C10.5595 10.6142 10.5577 10.6163 10.5557 10.6182C10.5577 10.6163 10.5595 10.6142 10.5615 10.6123ZM9.26074 10.3848C9.2569 10.3774 9.25363 10.3698 9.25 10.3623C9.25362 10.3698 9.25691 10.3774 9.26074 10.3848ZM10.7461 10.3682C10.7435 10.3734 10.741 10.3786 10.7383 10.3838C10.741 10.3786 10.7435 10.3734 10.7461 10.3682ZM7.5 10L7.51367 10.2559C7.51601 10.2788 7.52048 10.3014 7.52344 10.3242C7.52048 10.3014 7.51503 10.2789 7.5127 10.2559L7.5 10ZM9.20312 10.2451C9.19939 10.233 9.19752 10.2204 9.19434 10.208C9.19752 10.2204 9.1994 10.233 9.20312 10.2451ZM10.8291 9.91504C10.8319 9.94298 10.834 9.97132 10.834 10L10.8291 10.085C10.8319 10.057 10.833 10.0287 10.833 10L10.8291 9.91504ZM15.7041 8.93262C15.9961 9.11802 16.3101 9.26707 16.6387 9.375H16.6377C16.3093 9.26709 15.996 9.11798 15.7041 8.93262ZM10.6904 9.53418H10.6914H10.6904ZM3.69629 9.24805C3.90224 9.16022 4.10055 9.05546 4.29004 8.93555C4.10055 9.0555 3.90224 9.1602 3.69629 9.24805ZM1.92969 7.91406C1.8128 8.36762 1.73443 8.83637 1.69531 9.31641C1.72714 8.92435 1.78492 8.53987 1.86914 8.16504L1.92969 7.91406ZM9.91504 9.1709C9.83072 9.17942 9.7498 9.19968 9.6748 9.23145C9.72487 9.2102 9.77753 9.19377 9.83203 9.18262C9.85891 9.17713 9.88631 9.17276 9.91406 9.16992L9.91504 9.1709ZM10.085 9.16992C10.113 9.17279 10.1408 9.17703 10.168 9.18262C10.2221 9.1937 10.2744 9.2104 10.3242 9.23145V9.23242C10.2245 9.19023 10.1151 9.16604 10 9.16602L10.085 9.16992ZM8.07031 8.41016V8.40918V8.41016ZM5.12305 8.24121C5.13007 8.2336 5.13756 8.22642 5.14453 8.21875C5.13756 8.22642 5.13007 8.2336 5.12305 8.24121ZM5.25488 8.09277C5.21987 8.1346 5.18296 8.17459 5.14648 8.21484C5.18296 8.1746 5.21987 8.1346 5.25488 8.09277ZM14.7451 8.09277C14.78 8.13443 14.8162 8.17475 14.8525 8.21484C14.8162 8.17475 14.78 8.13444 14.7451 8.09277ZM8.40918 8.07031V8.07129V8.07031ZM2.0918 7.91602C2.0427 7.91667 1.99355 7.91633 1.94434 7.91406C1.99354 7.91633 2.04271 7.91666 2.0918 7.91602ZM17.2324 7.81543C17.3406 7.84724 17.4509 7.87163 17.5625 7.88867C17.4509 7.87163 17.3406 7.84725 17.2324 7.81543ZM2.26465 7.9082C2.22536 7.91145 2.18596 7.91267 2.14648 7.91406C2.18595 7.91268 2.22537 7.91144 2.26465 7.9082ZM2.58496 7.86035C2.48518 7.8818 2.38414 7.89709 2.28223 7.90625C2.38413 7.89712 2.48518 7.88177 2.58496 7.86035ZM5.53711 7.71289C5.4978 7.77245 5.45702 7.83064 5.41504 7.8877C5.45702 7.83064 5.4978 7.77245 5.53711 7.71289ZM14.4316 7.66699H14.4326C14.4811 7.74263 14.5322 7.816 14.585 7.8877C14.5321 7.81586 14.4802 7.74279 14.4316 7.66699ZM2.74902 7.81836C2.71727 7.82746 2.68541 7.83591 2.65332 7.84375C2.68541 7.83592 2.71727 7.82745 2.74902 7.81836ZM2.9082 7.76758C2.87107 7.78095 2.8336 7.79308 2.7959 7.80469C2.8336 7.7931 2.87107 7.78093 2.9082 7.76758ZM3.05762 7.70801C3.0237 7.72274 2.98958 7.73679 2.95508 7.75C2.98958 7.73681 3.02369 7.72273 3.05762 7.70801ZM15.6162 6.34375C15.6602 6.45341 15.7126 6.5617 15.7734 6.66699C16.0165 7.08784 16.3639 7.4107 16.7637 7.62305L16.7627 7.62402C16.5628 7.51782 16.3761 7.38367 16.209 7.22363C16.0419 7.06365 15.8949 6.87732 15.7734 6.66699C15.7128 6.56189 15.6601 6.4542 15.6162 6.34473V6.34375ZM3.21777 7.63184C3.18675 7.64801 3.15564 7.66387 3.12402 7.67871C3.15565 7.66389 3.18675 7.648 3.21777 7.63184ZM3.34375 7.56055C3.31302 7.57891 3.2824 7.59727 3.25098 7.61426C3.28241 7.59728 3.31301 7.5789 3.34375 7.56055ZM3.47168 7.47852C3.45526 7.48974 3.43951 7.50188 3.42285 7.5127C3.43951 7.50189 3.45525 7.48973 3.47168 7.47852ZM3.62207 7.36719C3.59847 7.38607 3.57497 7.4049 3.55078 7.42285C3.57498 7.4049 3.59847 7.38606 3.62207 7.36719ZM3.74609 7.26172C3.72152 7.28418 3.69722 7.30676 3.67188 7.32812C3.69723 7.30677 3.72152 7.28417 3.74609 7.26172ZM3.85938 7.15234C3.84225 7.17012 3.8252 7.18788 3.80762 7.20508C3.82521 7.18789 3.84224 7.17012 3.85938 7.15234ZM3.99121 7.00293C3.96782 7.03147 3.94536 7.06061 3.9209 7.08789C3.94537 7.06061 3.96781 7.03147 3.99121 7.00293ZM15.5088 6.01172L15.5098 6.01074L15.5088 6.01172ZM13.7793 5.68359L13.7803 5.68457L13.7793 5.68359ZM13.6006 4.3877C13.6884 4.44419 13.7753 4.50293 13.8604 4.56348C13.8475 4.62478 13.8352 4.68629 13.8252 4.74805C13.8352 4.68632 13.8466 4.62476 13.8594 4.56348C13.7744 4.50299 13.6883 4.44409 13.6006 4.3877ZM12.6367 4.06055C12.3941 4.2588 12.1289 4.42812 11.8477 4.56738C12.0728 4.45584 12.2873 4.32456 12.4883 4.1748C12.5383 4.13754 12.5874 4.09907 12.6357 4.05957L12.6367 4.06055ZM6.66504 4.22559H6.66602H6.66504ZM15.4561 3.70117H15.457H15.4561ZM6.76367 2.31836H6.76465H6.76367ZM11.6045 17.25C11.6409 17.2805 11.6763 17.3122 11.7109 17.3447C11.6763 17.3122 11.6409 17.2805 11.6045 17.25ZM11.9541 17.6064C11.9736 17.6308 11.9912 17.6566 12.0098 17.6816C11.9912 17.6566 11.9736 17.6308 11.9541 17.6064ZM18.3291 10.2686C18.3244 10.4171 18.3141 10.5645 18.3018 10.7109C18.3141 10.5645 18.3244 10.4171 18.3291 10.2686ZM4.02539 6.96387L4.03223 6.95508C4.0193 6.97169 4.0045 6.98672 3.99121 7.00293C4.00216 6.98958 4.01469 6.97749 4.02539 6.96387Z" fill="white"/>
</svg>
