<svg width="24" height="24" viewBox="0 0 24 24" fill="none" xmlns="http://www.w3.org/2000/svg">
<path d="M12 17.25C15.4655 17.25 18.4918 18.6876 20.2178 20.8311L18.8252 21.4902C17.3336 19.8275 14.825 18.75 12 18.75C9.17471 18.75 6.66546 19.8273 5.17383 21.4902L3.78125 20.8311C5.50709 18.6874 8.53418 17.25 12 17.25Z" fill="#FCD41D"/>
<path fill-rule="evenodd" clip-rule="evenodd" d="M12.002 2.25C14.6243 2.25111 16.75 4.37733 16.75 7V10C16.75 12.5523 14.7368 14.6343 12.2119 14.7451L11.9971 14.749C9.37502 14.7475 7.25 12.6224 7.25 10V7C7.25 4.44795 9.26259 2.36508 11.7871 2.25391L11.7881 2.25488L12.002 2.25Z" fill="#FCD41D"/>
<path d="M12 17.25C15.4655 17.25 18.4918 18.6876 20.2178 20.8311L18.8252 21.4902C17.3336 19.8275 14.825 18.75 12 18.75C9.17471 18.75 6.66546 19.8273 5.17383 21.4902L3.78125 20.8311C5.50709 18.6874 8.53418 17.25 12 17.25Z" fill="#2B2627"/>
</svg>
